<svg xmlns="http://www.w3.org/2000/svg" viewBox="0 0 1024 1024" width="1024" height="1024">
<defs>
<linearGradient id="neb" x1="0" y1="1" x2="1" y2="0">
  <stop offset="0" stop-color="#0A0825"/>
  <stop offset=".38" stop-color="#1A133F"/>
  <stop offset=".70" stop-color="#2E1B6E"/>
  <stop offset="1" stop-color="#7C2AEB"/>
</linearGradient>
<radialGradient id="glwA" cx=".80" cy=".15" r=".70">
  <stop offset="0" stop-color="#B58DFF" stop-opacity=".6"/>
  <stop offset=".5" stop-color="#7C2AEB" stop-opacity="0"/>
</radialGradient>
<radialGradient id="spark" cx=".82" cy=".12" r=".22">
  <stop offset="0" stop-color="#fff" stop-opacity=".32"/>
  <stop offset="1" stop-color="#7C2AEB" stop-opacity="0"/>
</radialGradient>
<radialGradient id="vig" cx=".28" cy=".88" r=".95">
  <stop offset=".55" stop-color="#000" stop-opacity="0"/>
  <stop offset="1" stop-color="#000" stop-opacity=".32"/>
</radialGradient>
</defs>
<rect width="1024" height="1024" rx="229" fill="url(#neb)"/>
<rect width="1024" height="1024" rx="229" fill="url(#glwA)"/>
<rect width="1024" height="1024" rx="229" fill="url(#spark)"/>
<rect width="1024" height="1024" rx="229" fill="url(#vig)"/>
<g transform="scale(0.816587)"><path fill="#fff" fill-rule="evenodd" d="M 376.1000007522,248.1666646550001 C 368.7333340708,249.21666465710007 352.6500007053,254.98333133530014 347.2166673611,258.53333134240006 C 323.6166673139,273.89999803980004 312.0666672908,289.5833314045001 304.1500006083,316.99999812600004 L 302.55000060509997,322.49999813700003 L 302.03333393739996,601.2499986945 L 301.500000603,879.9833325853001 L 298.0333339294,881.8499992557 C 296.1166672589,882.8666659244 293.2166672531,885.3666659294 291.5666672498,887.3999992668 L 288.58333391049996,891.0666659408 L 288.18333390969997,897.4833326203 L 287.76666724219996,903.8999992998 L 290.11666724689996,907.6999993074 C 292.80000058559995,912.0833326495 295.35000059069995,914.4166659875 299.2500005985,916.0666659908 L 302.000000604,917.2499993265001 L 302.000000604,972.0333327694 C 302.000000604,1002.1833328297 302.2666672712,1027.5499995471 302.60000060519997,1028.4166662155 L 303.2166672731,1029.999999552 L 627.1000012541999,1029.999999552 L 951.0000019019999,1029.999999552 L 951.0000019019999,781.999999056 L 951.0000019019999,533.99999856 L 812.0666682908,533.99999856 L 673.1333346796,533.99999856 L 672.4500013449,531.7499985555 C 670.7833346749,526.2333318778001 661.833334657,520.0666651988 655.4000013108,520.0166651987 C 641.0166679487,519.9166651985 631.7833345969,534.6499985613 638.0666679428,547.6499985873 C 640.4166679475,552.4833319303001 644.3666679554,555.3166652693001 651.1833346356999,557.0333319394 L 655.8666679784,558.1999986084 L 660.8833346550999,556.5333319384 C 665.333334664,555.0666652688 671.9666680106,549.499998591 672.0166680107,547.2166652531 C 672.0166680107,546.8166652523 672.4166680115,545.8999985838 672.8833346791,545.1666652490001 L 673.7333346808,543.8166652463001 L 806.8666682804,543.2999985786 L 940.0166685467,542.7666652442 L 941.3166685493,543.8499985797 L 942.6333352186,544.9333319152 L 909.0500018181,578.4666653156 L 875.4666684176,611.999998716 L 774.4833348822999,611.9666653826 L 673.500001347,611.9499987159 L 671.7166680101,608.0999987082 C 666.2666679992,596.2333320178 648.2166679631,594.6333320146 639.8166679463,605.2333320358 L 636.5666679397999,609.333332044 L 636.1833346057,615.5833320565 L 635.7833346049,621.833332069 L 638.0666679428,625.8999987438 C 642.4000012847999,633.5999987591999 652.4000013048,637.666665434 660.4666679876,635.0166654287 C 665.1333346636,633.4666654256 670.3833346741,628.9166654165 672.000001344,624.999998742 L 673.2500013465,621.9999987360001 L 761.8666681904,621.7833320689 C 848.33333503,621.5666654018 863.0166683927,621.6833320687 863.9500017278999,622.6166654039 C 864.2000017283999,622.8666654044 847.7833350289,639.7166654381 827.4666683216,660.0333321454 L 790.5166682477,696.9999988860001 L 732.2833347979,696.9999988860001 L 674.0333346814,696.9999988860001 L 672.0833346774999,693.2499988785 C 667.0500013340999,683.5833321925 653.5333346404,680.2999988526001 644.1833346216999,686.4999988650001 C 633.0833345995,693.8499988797 633.3166679333,710.9999989140001 644.6000012892,717.6166655939 L 649.0166679647,720.1999989324 L 655.1333346435999,720.1999989324 L 661.2500013225,720.1999989324 L 665.3833346641,717.3166655933001 C 667.6500013353,715.7333322568 670.3833346741,712.7999989176001 671.4500013429,710.8166655803001 L 673.4166680134999,707.1999989064001 L 676.9500013539,706.6166655719001 C 678.9000013578,706.2833322379 704.1833347417,706.0166655707001 733.1500014663,706.0166655707001 L 785.7833349048999,705.999998904 L 786.4000015728,707.5833322405 C 786.7333349068,708.4499989088999 787.000001574,745.7999989836001 787.000001574,790.5833324065 L 787.000001574,871.999999236 L 627.2500012544999,871.7499992355 L 467.50000093499995,871.499999235 L 467.2333342678,840.4166658395 L 466.9666676006,809.333332444 L 471.73333427679995,806.0666657708 C 474.35000094869997,804.2833324339 477.40000095479996,801.6166657619 478.500000957,800.1499990923 L 480.50000096099996,797.4999990870001 L 480.50000096099996,789.999999072 L 480.50000096099996,782.499999057 L 477.5833342885,778.6833323827 C 475.9833342853,776.5833323785 472.9333342792,773.9833323733001 470.83333427499997,772.9166657045 L 467.00000093399996,770.9499990339 L 467.25000093449995,581.7333319888 L 467.50000093499995,392.49999827700003 L 645.00000129,391.89999827580004 C 767.0500015341,391.49999827500005 824.5333349824,390.9666649406 829.000001658,390.1999982724001 C 879.5666684258,381.6333315886001 924.8666685164,343.79999817960004 944.9500018898999,293.3833314121 C 949.7166685660999,281.41666472149996 954.4666685755999,263.54999801910003 955.5333352444,253.5166646657001 L 956.2333352457999,246.99999798600004 L 669.3666680054,247.1166646529001 C 502.0833343375,247.19999798640015 379.833334093,247.63333132060006 376.1000007522,248.1666646550001 M 457.73333424879996,724.5999989412 C 457.98333424929996,745.8666656504001 457.9000009158,765.1833323557 457.5500009151,767.5333323604 L 456.9000009138,771.7999990356 L 454.6000009092,772.3833323701001 C 453.33333424,772.6999990374001 450.4666675676,774.9499990419001 448.2333342298,777.3666657134 L 444.16666755499995,781.7666657222001 L 443.500000887,787.1999990664001 L 442.8166675523,792.6166657439001 L 444.4666675556,796.5666657518 C 446.4333342262,801.2833324279 450.2333342338,805.4333324362001 454.00000090799995,806.999999106 L 456.76666758019996,808.1499991083001 L 457.36666758139995,811.8166657823001 C 457.7000009153999,813.8499991197 457.98333424929996,830.4333324862 457.98333424929996,848.6999991894 L 458.000000916,881.8833325891001 L 514.0500010280999,881.8166659223 C 544.8666677563999,881.7833325889001 570.2500011404999,881.9166659225 570.4500011409,882.1333325896001 C 570.6666678079999,882.33333259 556.8000011135999,896.7833326189 539.6666677459999,914.2499993205 L 508.500001017,946.0166660507 L 456.71666758009997,945.999999384 L 404.9333341432,945.999999384 L 404.3166674753,944.2499993805 C 403.0500008061,940.6166660399 398.7500007975,935.9166660305 394.9500007899,933.9666660266 L 391.000000782,931.9666660226001 L 391.000000782,841.2333325078 L 391.000000782,750.5166656597 L 423.70000084739996,717.7999989276001 C 441.7000008834,699.7999988916001 456.60000091319995,685.2666655292 456.833334247,685.4999988630001 C 457.06666758079996,685.7333321968001 457.4666675816,703.3333322320001 457.73333424879996,724.5999989412 M 229.1817794806301,732.1941251596425 C 229.20051085568332,783.7428693060876 229.20051085568332,826.806300553427 229.1817794806301,827.8552575564072 C 229.16304810557688,828.9229459344403 227.64580672626656,830.5713069391231 225.81013197105156,831.526607066837 C 221.12728820774805,833.9429544487018 217.99914857386125,837.4644529587058 215.37675606641128,843.2524478501491 L 213.1477224350788,848.2162622392507 L 213.78458918688807,853.6858237547892 C 214.57130693912308,860.2605363984674 217.66198382290338,864.9246487867179 223.91826309067693,868.9331630481056 L 228.58237547892722,871.9114516815666 L 234.91358024691363,871.855257556407 L 241.26351638995322,871.7990634312473 L 246.4333759046403,868.7645806726266 C 249.69263516389952,866.853980417199 252.44614729672202,864.1191996594296 253.83226905065987,861.4218816517666 C 255.03107705406558,859.0429970200084 256.6794380587484,856.8701575138357 257.4661558109834,856.5891868880376 C 258.27160493827165,856.3082162622393 281.2550021285654,855.9523201362281 308.5466155810984,855.8212005108555 L 358.1660280970626,855.5589612601107 L 358.9714772243508,856.8514261387825 C 359.4584929757343,857.6568752660708 346.27160493827165,871.667943805875 324.5244785014901,893.452532992763 L 289.27203065134097,928.7424435930184 L 220.43422733077912,928.7611749680714 L 151.59642401021716,928.7611749680714 L 151.59642401021716,870.9936143039592 L 151.59642401021716,813.2073222647934 L 156.76628352490422,810.1915708812262 L 161.93614303959134,807.1570881226053 L 164.7645806726267,800.994465730098 L 167.59301830566199,794.8131119625373 L 166.84376330353342,790.148999574287 C 165.7198808003406,783.1809280544912 161.20561941251594,776.2690506598551 156.03575989782888,773.6466581524053 L 151.59642401021716,771.3801617709664 L 151.59642401021716,743.002128565347 L 151.59642401021716,714.6428267347808 L 189.97701149425288,676.1498510004258 C 211.08727117922518,654.9646658152406 228.54491272882075,637.8254576415495 228.76968922945937,638.0502341421884 C 228.97573435504472,638.2562792677736 229.1817794806301,680.626649638144 229.1817794806301,732.1941251596425"/></g>
</svg>
