<svg xmlns="http://www.w3.org/2000/svg" viewBox="0 0 100 100" width="100%" height="100%">
  <rect width="100" height="100" fill="#0c0717" rx="16"/>
  <defs>
    <linearGradient id="apple-grad" x1="0" y1="0" x2="1" y2="1">
      <stop offset="0%" stop-color="#ff3b30"/>
      <stop offset="30%" stop-color="#ff9500"/>
      <stop offset="55%" stop-color="#4cd964"/>
      <stop offset="75%" stop-color="#5ac8fa"/>
      <stop offset="100%" stop-color="#5856d6"/>
    </linearGradient>
    <filter id="glow-apple" x="-20%" y="-20%" width="140%" height="140%">
      <feDropShadow dx="0" dy="4" stdDeviation="6" flood-color="#ffffff" flood-opacity="0.25"/>
    </filter>
  </defs>
  <g filter="url(#glow-apple)">
    <rect x="18" y="24" width="64" height="44" rx="7" fill="url(#apple-grad)"/>
    <g transform="translate(50,41) scale(1.25) translate(-12,-12)">
      <path fill="#ffffff" d="M12.152 6.896c-.948 0-2.415-1.078-3.96-1.04-2.04.027-3.91 1.183-4.961 3.014-2.117 3.675-.546 9.103 1.519 12.09 1.013 1.454 2.208 3.09 3.792 3.039 1.52-.065 2.09-.987 3.935-.987 1.831 0 2.35.987 3.96.948 1.637-.026 2.676-1.48 3.676-2.948 1.156-1.688 1.636-3.325 1.662-3.415-.039-.013-3.182-1.221-3.22-4.857-.026-3.04 2.48-4.494 2.597-4.559-1.429-2.09-3.623-2.324-4.39-2.376-2-.156-3.675 1.09-4.61 1.09zM15.53 3.83c.843-1.012 1.4-2.427 1.245-3.83-1.207.052-2.662.805-3.532 1.818-.78.896-1.454 2.338-1.273 3.714 1.338.104 2.715-.688 3.559-1.701" opacity="0.95"/>
    </g>
    <text x="50" y="64" font-family="'Inter', sans-serif" font-weight="800" font-size="6.5" fill="#ffffff" text-anchor="middle" letter-spacing="0.3" opacity="0.95">iTunes Gift Card</text>
  </g>
</svg>
