<svg xmlns="http://www.w3.org/2000/svg" viewBox="0 0 100 100" width="100%" height="100%">
  <rect width="100" height="100" fill="#0c0717" rx="16"/>
  <defs>
    <filter id="glow-combo" x="-20%" y="-20%" width="140%" height="140%">
      <feDropShadow dx="0" dy="3" stdDeviation="5" flood-color="#e50914" flood-opacity="0.35"/>
      <feDropShadow dx="0" dy="3" stdDeviation="5" flood-color="#00a8e1" flood-opacity="0.35"/>
    </filter>
  </defs>
  <g filter="url(#glow-combo)">
    <line x1="50" y1="24" x2="50" y2="76" stroke="#ffffff" stroke-opacity="0.12" stroke-width="1.5"/>
    <g transform="translate(29,50) scale(1.7) translate(-12,-12)">
      <path fill="#e50914" d="m5.398 0 8.348 23.602c2.346.059 4.856.398 4.856.398L10.113 0H5.398zm8.489 0v9.172l4.715 13.33V0h-4.715zM5.398 1.5V24c1.873-.225 2.81-.312 4.715-.398V14.83L5.398 1.5z"/>
    </g>
    <g transform="translate(71,50)">
      <path d="M-14 -5 Q 0 10, 14 -5" fill="none" stroke="#00a8e1" stroke-width="5.5" stroke-linecap="round"/>
      <path d="M9 -9 L 16 -4 L 12 5" fill="none" stroke="#00a8e1" stroke-width="5" stroke-linecap="round" stroke-linejoin="round"/>
    </g>
    <circle cx="50" cy="50" r="9" fill="#0c0717" stroke="#ffffff" stroke-opacity="0.2" stroke-width="1"/>
    <text x="50" y="54" font-family="'Inter', sans-serif" font-weight="900" font-size="12" fill="#ffffff" text-anchor="middle">+</text>
  </g>
</svg>
